<?xml version="1.0" standalone="no"?><!DOCTYPE svg PUBLIC "-//W3C//DTD SVG 1.1//EN" "http://www.w3.org/Graphics/SVG/1.1/DTD/svg11.dtd"><svg t="1658917634532" class="icon" viewBox="0 0 1024 1024" version="1.1" xmlns="http://www.w3.org/2000/svg" p-id="1129" xmlns:xlink="http://www.w3.org/1999/xlink" width="200" height="200"><defs><style type="text/css"></style></defs><path d="M512 174.42761308L393.84713292 292.58048017 512 410.73334726 630.15286708 292.58048017 512 174.42761308zM512 106.93338904l185.62177447 185.62177449-185.62177447 185.62177446L326.37822553 292.55516352 512 106.93338904z m0 134.98844811l50.63332637 50.63332637-50.63332637 50.63332636-50.63332637-50.63332636 50.63332637-50.63332637zM292.60579684 326.32759221l185.62177448 185.62177446-185.62177448 185.62177448L106.98402237 511.94936667 292.60579684 326.32759221z m0 67.49422404l-118.12755041 118.12755042L292.6311135 630.10223374 410.75866392 511.97468335 292.60579684 393.82181625z m0 67.49422406l50.63332636 50.63332637-50.63332636 50.63332635-50.63332637-50.63332635 50.63332637-50.63332637zM731.39420316 326.32759221l185.62177447 185.62177446-185.62177447 185.62177448L545.77242868 511.94936667 731.39420316 326.32759221z m0 67.49422404L613.24133608 511.97468335l118.12755042 118.12755039L849.52175358 511.94936666 731.39420316 393.82181625z m-118.12755041 421.87687532L613.31728607 815.74932489l-33.7724287 33.77242869-118.17818374-118.17818375L545.74711203 646.96313144 512 613.21601941 360.12533757 765.09068186 326.37822553 731.34356983 512 545.72179535l101.24133608 101.24133609-84.35512172 84.35512173 50.63332635 50.63332636L663.87466243 697.5964578l33.74711205 33.74711203-84.35512174 84.35512174z m118.12755041-354.38265126l50.63332637 50.63332636-50.63332637 50.63332637-50.63332636-50.63332637 50.63332636-50.63332636z m-219.39420316 455.649304l-33.74711203-33.74711203 33.74711203-33.74711203 33.74711203 33.74711203-33.74711203 33.74711203z m-84.3804384-84.3804384l-33.74711203-33.74711202 33.74711204-33.74711204 33.74711202 33.74711203-33.74711202 33.74711203z" fill="#262626" p-id="1130"></path></svg>