<?xml version="1.0" standalone="no"?><!DOCTYPE svg PUBLIC "-//W3C//DTD SVG 1.1//EN" "http://www.w3.org/Graphics/SVG/1.1/DTD/svg11.dtd"><svg t="1658917642349" class="icon" viewBox="0 0 1024 1024" version="1.1" xmlns="http://www.w3.org/2000/svg" p-id="1268" xmlns:xlink="http://www.w3.org/1999/xlink" width="200" height="200"><defs><style type="text/css"></style></defs><path d="M844.07626425 702.11107872c-1.05829013-1.36065849-104.7707042-146.04401162-104.77070419-252.62892686 0-148.00940684-66.97463467-223.90391425-143.02032628-252.17537343L596.28523467 183.85137764c0-46.56475722-37.94725372-84.36082675-84.36082676-84.36082676S427.56358115 137.4378046 427.56358115 183.85137764l0 14.66487509c-9.52460948 6.95447666-14.21132168 19.20040312-10.43171543 30.99277706 4.68671221 14.81605928 20.56106162 22.82882607 35.3771209 18.14211299 15.57198018-4.98908144 32.50461973-7.4080292 50.041996-7.4080292l18.74685058 0c101.29346542 0 161.76717597 78.31345518 161.76717597 209.39022334 0 94.94372549 64.10213349 206.82009053 96.90912159 257.92037666-50.49554854 22.98001026-160.86007089 66.97463467-267.89853867 66.97463467-106.73609941 0-217.40299013-44.29699278-267.89853867-67.27700303 32.80698809-50.94910107 96.7579374-162.52309776 96.7579374-257.61800742 0-54.87989239 10.12934619-100.38635947 30.38803945-135.30992783 7.71039844-13.45540078 3.17486953-30.69040781-10.28053125-38.40080625-13.60658497-7.86158261-30.69040781-3.17486953-38.40080625 10.28053125-25.09658964 43.54107188-37.94725372 98.57214844-37.94725371 163.43020283 0 106.58491523-103.71241406 250.66353076-104.77070419 252.17537344-4.68671221 6.6521083-6.50092412 14.81605928-4.68671221 22.82882607 1.81421104 7.86158261 6.95447666 14.6648751 14.0601375 18.44448135 4.98908144 2.72131699 94.33898877 50.34436435 205.15706367 74.23147969 18.74685059 58.35713115 65.00923945 97.81622754 117.4701832 97.81622753s98.72333262-39.45909638 117.4701832-97.81622753c110.8180749-23.88711533 200.16798222-71.20779434 205.15706368-73.77792716 7.10566084-3.93079131 12.24592646-10.58289961 14.21132167-18.44448135C850.57718838 717.07832218 848.91416065 708.76318702 844.07626425 702.11107872zM502.55098261 183.85137764c-6.34973994 0-12.54829482 0.90710596-18.74685058 1.3606585L483.80413203 183.85137764c0-15.42079599 12.69947901-28.12027588 28.12027588-28.12027588 15.42079599 0 28.12027588 12.69947901 28.12027587 28.12027588l0 0.75592178c-6.34973994-0.45355254-12.54829482-0.75592178-18.74685058-0.75592178L502.55098261 183.85137764zM511.92440791 858.88917325c-19.65395567 0-37.94725372-11.79237393-50.94910108-30.99277706 16.93263867 1.81421104 33.86527822 2.87250117 50.94910108 2.87250118s34.16764658-1.20947432 50.94910107-2.87250118C549.87166162 847.0968002 531.57836357 858.88917325 511.92440791 858.88917325z" p-id="1269"></path></svg>