<?xml version="1.0" standalone="no"?><!DOCTYPE svg PUBLIC "-//W3C//DTD SVG 1.1//EN" "http://www.w3.org/Graphics/SVG/1.1/DTD/svg11.dtd"><svg t="1658917657932" class="icon" viewBox="0 0 1024 1024" version="1.1" xmlns="http://www.w3.org/2000/svg" p-id="2107" xmlns:xlink="http://www.w3.org/1999/xlink" width="200" height="200"><defs><style type="text/css"></style></defs><path d="M302.36 194.645a88.32 88.32 0 0 1 87.555-76.395H637.85a88.32 88.32 0 0 1 87.54 76.395h58.29A88.275 88.275 0 0 1 872 282.845V579.5a30 30 0 1 1-60 0V282.86c0-15.525-12.63-28.2-28.335-28.2H724.1a88.35 88.35 0 0 1-86.265 69.105H389.9a88.35 88.35 0 0 1-86.25-69.12h-59.58a28.275 28.275 0 0 0-28.335 28.2V821.3c0 15.525 12.63 28.215 28.335 28.215H515.75a30 30 0 1 1 0 60H244.085a88.275 88.275 0 0 1-88.335-88.2V282.845c0-48.78 39.6-88.2 88.335-88.2h58.29z m87.555-16.395a28.275 28.275 0 0 0-28.335 28.2v29.1c0 15.525 12.63 28.215 28.35 28.215h247.905a28.275 28.275 0 0 0 28.335-28.2v-29.1c0-15.525-12.63-28.215-28.35-28.215H389.93z" p-id="2108"></path><path d="M474.5 448.25a30 30 0 0 1 30-30h221.25a30 30 0 1 1 0 60H504.5a30 30 0 0 1-30-30zM474.5 658.25a30 30 0 0 1 30-30h180a30 30 0 1 1 0 60h-180a30 30 0 0 1-30-30zM283.25 403.25a30 30 0 0 1 30-30h90a30 30 0 0 1 30 30v90a30 30 0 0 1-30 30h-90a30 30 0 0 1-30-30v-90z m60 30v30h30v-30h-30zM283.25 617a30 30 0 0 1 30-30h90a30 30 0 0 1 30 30v90a30 30 0 0 1-30 30h-90a30 30 0 0 1-30-30v-90z m60 30v30h30v-30h-30zM900.71 651.455a30 30 0 0 1 0 42.42L706.265 888.335a60 60 0 0 1-84.855 0l-79.995-80.01a30 30 0 1 1 42.42-42.42l79.995 79.995 194.46-194.445a30 30 0 0 1 42.42 0z" p-id="2109"></path></svg>