<?xml version="1.0" standalone="no"?><!DOCTYPE svg PUBLIC "-//W3C//DTD SVG 1.1//EN" "http://www.w3.org/Graphics/SVG/1.1/DTD/svg11.dtd"><svg t="1658917655375" class="icon" viewBox="0 0 1024 1024" version="1.1" xmlns="http://www.w3.org/2000/svg" p-id="1966" xmlns:xlink="http://www.w3.org/1999/xlink" width="200" height="200"><defs><style type="text/css"></style></defs><path d="M577.472 391.616a70.688 70.688 0 0 0 70.608-70.592 24 24 0 0 0-48 0 22.624 22.624 0 0 1-22.608 22.592h-136.16a22.64 22.64 0 0 1-22.624-22.592v-136.192a22.64 22.64 0 0 1 22.624-22.608h136.16a22.624 22.624 0 0 1 22.608 22.608 24 24 0 0 0 48 0 70.672 70.672 0 0 0-70.608-70.608h-136.16a70.688 70.688 0 0 0-70.624 70.608v136.192a70.704 70.704 0 0 0 70.624 70.592h136.16z" fill="#1771B9" p-id="1967"></path><path d="M867.648 632.432h-44.096v-76.144a58.784 58.784 0 0 0-56.88-60.4H533.376v-104.32h-48v104.32H257.312a58.784 58.784 0 0 0-56.896 60.4v76.144H156.32a70.688 70.688 0 0 0-70.592 70.608v136.192a70.672 70.672 0 0 0 70.592 70.592h136.192a70.688 70.688 0 0 0 70.608-70.592V703.04a70.688 70.688 0 0 0-70.608-70.608h-44.096v-76.144c0-7.104 4.688-12.4 8.896-12.4h509.36c4.192 0 8.88 5.296 8.88 12.4v76.144h-44.096a70.688 70.688 0 0 0-70.608 70.608v136.192a70.688 70.688 0 0 0 70.608 70.592h136.192a70.672 70.672 0 0 0 70.608-70.592V703.04a70.688 70.688 0 0 0-70.608-70.608zM315.12 703.04v136.192a22.64 22.64 0 0 1-22.608 22.592H156.32a22.624 22.624 0 0 1-22.592-22.592V703.04a22.64 22.64 0 0 1 22.592-22.608h136.192a22.64 22.64 0 0 1 22.56 22.608z m575.136 136.192a22.64 22.64 0 0 1-22.608 22.592h-136.192a22.64 22.64 0 0 1-22.608-22.592V703.04a22.64 22.64 0 0 1 22.608-22.608h136.192a22.64 22.64 0 0 1 22.608 22.608z" fill="#666666" p-id="1968"></path><path d="M644.064 239.616a24 24 0 0 0-6.72-6.72 43.776 43.776 0 0 0-4-2.256 48 48 0 0 0-4.64-1.28 22.576 22.576 0 0 0-9.264 0 36.912 36.912 0 0 0-4.48 1.28 31.312 31.312 0 0 0-4.16 2.256 31.68 31.68 0 0 0-3.68 3.024 23.648 23.648 0 0 0-3.056 3.696 19.376 19.376 0 0 0-2.064 4 23.856 23.856 0 0 0-1.44 4.64 21.52 21.52 0 0 0-0.496 4.64 24 24 0 0 0 48 0 21.504 21.504 0 0 0-0.464-4.64 47.36 47.36 0 0 0-1.28-4.64 29.52 29.52 0 0 0-2.256-4z" fill="#1771B9" p-id="1969"></path></svg>