<?xml version="1.0" standalone="no"?><!DOCTYPE svg PUBLIC "-//W3C//DTD SVG 1.1//EN" "http://www.w3.org/Graphics/SVG/1.1/DTD/svg11.dtd"><svg t="1658917650272" class="icon" viewBox="0 0 1024 1024" version="1.1" xmlns="http://www.w3.org/2000/svg" p-id="1687" xmlns:xlink="http://www.w3.org/1999/xlink" width="200" height="200"><defs><style type="text/css"></style></defs><path d="M879.63506073 505.22467436L534.8299016 160.41951524c-12.51962347-12.51962347-32.99289006-12.51962347-45.51251353 0L312.27518335 337.46171997C514.65121438 453.08412489 688.15846659 634.25044085 762.981628 844.43282534c3.82953187-7.2171947 6.03887719-15.31812754 6.03887719-24.15550879V581.07886357l87.63736424-20.91513567c28.86877882 0.1472897 43.3031682-34.61307664 22.9771913-54.93905354z" fill="#FFDE55" p-id="1688"></path><path d="M716.43808666 891.41823574h-76.73792734c-38.44260851 0-69.66802233-31.22541381-69.66802233-69.66802231v-115.47511522c0-35.79139413-29.16335819-64.95475232-64.95475231-64.95475232s-64.95475232 29.16335819-64.95475232 64.95475232v115.47511522c0 38.44260851-31.22541381 69.66802233-69.66802232 69.66802231h-62.8926967c-39.17905696 0-71.1409192-31.96186226-71.14091919-71.14091919V595.66054267l-71.58278826-17.0856038c-19.88410785-0.88373813-36.67513227-12.66691315-44.33419603-31.2254138-7.95364315-19.2949491-3.82953187-40.35737445 11.04672658-55.23363292l344.80515912-344.80515913c9.5738297-9.5738297 22.24074286-14.87625845 35.79139414-14.87625846s26.21756444 5.30242877 35.79139413 14.87625846l344.8051591 344.80515913c14.72896878 14.72896878 19.00036972 35.93868383 11.0467266 55.23363292-7.65906378 18.55850066-24.59737787 30.34167568-44.33419604 31.2254138l-71.58278826 17.0856038v224.61677388c-0.29457937 39.17905696-32.25644163 71.1409192-71.43549857 71.14091919zM505.07738468 604.35063425c56.11737105 0 101.77717426 45.65980321 101.77717425 101.77717425v115.47511523c0 18.11663161 14.72896878 32.84560039 32.84560039 32.84560039h76.73792734c18.85308003 0 34.31849726-15.31812754 34.31849725-34.31849726V566.49718448l103.98651959-24.74466754h2.2093453c8.3955122 0 11.63588534-5.89158752 12.81420284-8.5428019 1.03102783-2.50392469 2.94579374-9.13196064-2.94579375-15.02354814l-345.0997385-344.65786945c-2.65121438-2.65121438-6.03887719-3.97682157-9.72111939-3.97682157s-7.2171947 1.47289687-9.72111939 3.97682157L157.47372149 518.33345658c-5.89158752 5.89158752-4.12411126 12.51962347-2.94579376 15.02354816 1.03102783 2.50392469 4.41869063 8.54280189 12.81420284 8.54280187h2.20934531l103.98651959 24.74466756v253.78013207c0 18.85308003 15.31812754 34.31849726 34.31849724 34.31849726h62.8926967c18.11663161 0 32.84560039-14.72896878 32.84560036-32.84560039V706.42238788c-0.29457937-56.41195043 45.36522383-102.07175363 101.48259491-102.07175363z" fill="" p-id="1689"></path></svg>