<?xml version="1.0" standalone="no"?><!DOCTYPE svg PUBLIC "-//W3C//DTD SVG 1.1//EN" "http://www.w3.org/Graphics/SVG/1.1/DTD/svg11.dtd"><svg t="1658917661747" class="icon" viewBox="0 0 1024 1024" version="1.1" xmlns="http://www.w3.org/2000/svg" p-id="2386" xmlns:xlink="http://www.w3.org/1999/xlink" width="200" height="200"><defs><style type="text/css"></style></defs><path d="M90.5369873 287.87890625v448.2421875c0 29.08630372 23.64807129 52.734375 52.73437501 52.734375h738.28125c29.08630372 0 52.734375-23.64807129 52.734375-52.734375V287.87890625c0-29.08630372-23.64807129-52.734375-52.734375-52.734375h-738.28125c-29.08630372 0-52.734375 23.64807129-52.734375 52.734375z m59.32617188 0h725.09765625c3.62548828 0 6.59179688 2.96630859 6.59179688 6.59179688v36.25488281L560.44970703 496.83886719c-30.40466309 15.73791504-66.49475098 15.73791504-96.89941406 0l-320.27893067-165.61889649V294.47070312c0-3.62548828 2.96630859-6.59179688 6.59179688-6.59179687z m725.09765625 448.2421875h-725.09765625c-3.62548828 0-6.59179688-2.96630859-6.59179687-6.59179688V390.54614258l320.27893066 165.70129395c30.40466309 15.73791504 66.49475098 15.73791504 96.89941406-1e-8L881.55261231 390.05175781v339.47753906c0 3.62548828-2.96630859 6.59179688-6.59179688 6.59179688z" p-id="2387"></path></svg>