<?xml version="1.0" standalone="no"?><!DOCTYPE svg PUBLIC "-//W3C//DTD SVG 1.1//EN" "http://www.w3.org/Graphics/SVG/1.1/DTD/svg11.dtd"><svg t="1658917659885" class="icon" viewBox="0 0 1024 1024" version="1.1" xmlns="http://www.w3.org/2000/svg" p-id="2247" xmlns:xlink="http://www.w3.org/1999/xlink" width="200" height="200"><defs><style type="text/css"></style></defs><path d="M362 182c15.894375 0 30.924375 6.2775 42.3234375 17.6765625C415.7225 211.075625 422 226.105625 422 242v120c0 15.894375-6.2775 30.924375-17.6765625 42.3234375S377.894375 422 362 422H242c-15.894375 0-30.924375-6.2775-42.3234375-17.6765625C188.2775 392.924375 182 377.894375 182 362V242c0-15.894375 6.2775-30.924375 17.6765625-42.3234375C211.075625 188.2775 226.105625 182 242 182h120m0-60H242c-66 0-120 54-120 120v120c0 66 54 120 120 120h120c66 0 120-54 120-120V242c0-66-54-120-120-120zM722 157.2921875c16.1203125 0 31.1878125 6.189375 42.4265625 17.428125l84.853125 84.853125c11.23875 11.23875 17.428125 26.30625 17.428125 42.4265625s-6.189375 31.1878125-17.428125 42.4265625l-84.853125 84.853125c-11.23875 11.23875-26.30625 17.428125-42.4265625 17.428125s-31.1878125-6.189375-42.4265625-17.428125l-84.853125-84.853125c-11.23875-11.23875-17.428125-26.30625-17.428125-42.4265625s6.189375-31.1878125 17.428125-42.4265625l84.853125-84.853125c11.23875-11.2378125 26.30625-17.428125 42.4265625-17.428125m0-60c-30.759375 0-61.5178125 11.6671875-84.853125 35.0015625l-84.853125 84.853125c-46.66875 46.66875-46.66875 123.0365625 0 169.70625l84.853125 84.853125c23.334375 23.334375 54.09375 35.0015625 84.853125 35.0015625s61.5178125-11.6671875 84.853125-35.0015625l84.853125-84.853125c46.66875-46.66875 46.66875-123.0365625 0-169.70625l-84.853125-84.853125c-23.3353125-23.3334375-54.09375-35.0015625-84.853125-35.0015625zM362 602c15.894375 0 30.924375 6.2775 42.3234375 17.6765625S422 646.105625 422 662v120c0 15.894375-6.2775 30.924375-17.6765625 42.3234375S377.894375 842 362 842H242c-15.894375 0-30.924375-6.2775-42.3234375-17.6765625C188.2775 812.924375 182 797.894375 182 782V662c0-15.894375 6.2775-30.924375 17.6765625-42.3234375C211.075625 608.2775 226.105625 602 242 602h120m0-60H242c-66 0-120 54-120 120v120c0 66 54 120 120 120h120c66 0 120-54 120-120V662c0-66-54-120-120-120zM782 602c15.894375 0 30.924375 6.2775 42.3234375 17.6765625S842 646.105625 842 662v120c0 15.894375-6.2775 30.924375-17.6765625 42.3234375S797.894375 842 782 842H662c-15.894375 0-30.924375-6.2775-42.3234375-17.6765625S602 797.894375 602 782V662c0-15.894375 6.2775-30.924375 17.6765625-42.3234375S646.105625 602 662 602h120m0-60H662c-66 0-120 54-120 120v120c0 66 54 120 120 120h120c66 0 120-54 120-120V662c0-66-54-120-120-120z" p-id="2248"></path></svg>