<?xml version="1.0" standalone="no"?><!DOCTYPE svg PUBLIC "-//W3C//DTD SVG 1.1//EN" "http://www.w3.org/Graphics/SVG/1.1/DTD/svg11.dtd"><svg t="1658917668285" class="icon" viewBox="0 0 1024 1024" version="1.1" xmlns="http://www.w3.org/2000/svg" p-id="2807" xmlns:xlink="http://www.w3.org/1999/xlink" width="200" height="200"><defs><style type="text/css"></style></defs><path d="M480.942808 631.333269a31.057192 31.057192 0 1 0 62.114384 0V405.622905a31.057192 31.057192 0 1 0-62.114384 0v225.710364z m0 107.106495c0-17.152444 13.904749-31.057192 31.057192-31.057192s31.057192 13.904749 31.057192 31.057192-13.904749 31.057192-31.057192 31.057193-31.057192-13.904749-31.057192-31.057193zM79.941213 827.549948a44.52714 44.52714 0 0 0 16.298815 60.826842 44.52714 44.52714 0 0 0 60.825955-16.298814L547.138995 196.450052a44.52714 44.52714 0 0 0-16.297927-60.826842 44.52714 44.52714 0 0 0-60.825955 16.298814z" fill="#EF457D" p-id="2808"></path><path d="M118.828367 807.262503a44.52714 44.52714 0 0 0-44.52714 44.52714 44.52714 44.52714 0 0 0 44.52714 44.528915h785.677754a44.52714 44.52714 0 0 0 44.527141-44.528028 44.52714 44.52714 0 0 0-44.527141-44.52714z" fill="#F3739D" p-id="2809"></path><path d="M493.158045 135.62321A44.52714 44.52714 0 0 0 476.861005 196.450052L866.934017 872.077088a44.52714 44.52714 0 0 0 60.825955 16.298815 44.52714 44.52714 0 0 0 16.298815-60.826842L553.984 151.922912a44.52714 44.52714 0 0 0-60.825955-16.298815z" fill="#F15C8D" p-id="2810"></path></svg>