<?xml version="1.0" standalone="no"?><!DOCTYPE svg PUBLIC "-//W3C//DTD SVG 1.1//EN" "http://www.w3.org/Graphics/SVG/1.1/DTD/svg11.dtd"><svg t="1658917647911" class="icon" viewBox="0 0 1024 1024" version="1.1" xmlns="http://www.w3.org/2000/svg" p-id="1548" xmlns:xlink="http://www.w3.org/1999/xlink" width="200" height="200"><defs><style type="text/css"></style></defs><path d="M926.08323077 97.91914228a26.56472388 26.56472388 0 0 0-28.33131061-6.01826112L107.15147125 396.30756421a26.61086563 26.61086563 0 0 0-16.78257641 21.24518665 26.61745743 26.61745743 0 0 0 10.54678848 24.92997143L377.3272341 646.71468972l204.19241666 276.3917754a26.63723282 26.63723282 0 0 0 24.92337963 10.53360489 26.57790665 26.57790665 0 0 0 21.25177844-16.78257724L932.10149188 126.25045288a26.59768204 26.59768204 0 0 0-6.0182611-28.33131061zM171.40118887 428.50163565l628.55563459-242.00924469-406.23592484 406.26229203L171.40118887 428.50163565z m424.09954852 424.09954853L431.28064904 630.31443341l406.22274125-406.24910843-242.0026529 628.5358592z" fill="#838384" p-id="1549"></path></svg>